HIERARCHY
ROOT Hips
{
  OFFSET 155.048 98.1286 3.93448
  CHANNELS 6 Xposition Yposition Zposition Zrotation Xrotation Yrotation
  JOINT RightUpLeg
  {
    OFFSET -8.9458 -8.66707 0.101652
    CHANNELS 3 Zrotation Xrotation Yrotation
    JOINT RightLeg
    {
      OFFSET 0 -44.4227 1.3727
      CHANNELS 3 Zrotation Xrotation Yrotation
      JOINT RightFoot
      {
        OFFSET 0.253549 -42.0924 -1.46059
        CHANNELS 3 Zrotation Xrotation Yrotation
        JOINT RightToes
        {
          OFFSET 0.04 -4.41509 8.4991
          CHANNELS 3 Zrotation Xrotation Yrotation
          End Site
          {
            OFFSET -0.08 -0.137448 9.77979
          }
        }
      }
    }
  }
  JOINT Spine
  {
    OFFSET 0 11.8905 0
    CHANNELS 3 Zrotation Xrotation Yrotation
    JOINT Spine1
    {
      OFFSET 0 25.6574 0.127663
      CHANNELS 3 Zrotation Xrotation Yrotation
      JOINT Head
      {
        OFFSET 0 8.73416 0.011341
        CHANNELS 3 Zrotation Xrotation Yrotation
        End Site
        {
          OFFSET -0.29 12.7742 2.51395
        }
      }
      JOINT LeftShoulder1
      {
        OFFSET 8.99 -0.362252 -0.22
        CHANNELS 3 Zrotation Xrotation Yrotation
        JOINT LeftArm
        {
          OFFSET 10.2827 -0.00337999 0.322123
          CHANNELS 3 Zrotation Xrotation Yrotation
          JOINT LeftForeArm
          {
            OFFSET 26.2597 0.099144 -1.42434
            CHANNELS 3 Zrotation Xrotation Yrotation
            JOINT LeftHand
            {
              OFFSET 22.0902 0.085362 1.02216
              CHANNELS 3 Zrotation Xrotation Yrotation
              End Site
              {
                OFFSET 13.419 -0.6 1.50291
              }
            }
          }
        }
      }
      JOINT RightShoulder
      {
        OFFSET -8.99 -0.362252 -0.22
        CHANNELS 3 Zrotation Xrotation Yrotation
        JOINT RightArm
        {
          OFFSET -10.2827 -0.00338 0.322123
          CHANNELS 3 Zrotation Xrotation Yrotation
          JOINT RightForeArm
          {
            OFFSET -26.364 0.099144 -1.42434
            CHANNELS 3 Zrotation Xrotation Yrotation
            JOINT RightHand
            {
              OFFSET -22.0324 0.085362 1.02216
              CHANNELS 3 Zrotation Xrotation Yrotation
              End Site
              {
                OFFSET -13.3284 -0.6 1.50291
              }
            }
          }
        }
      }
    }
  }
  JOINT LeftUpLeg
  {
    OFFSET 8.9458 -8.66707 0.101652
    CHANNELS 3 Zrotation Xrotation Yrotation
    JOINT LeftLeg
    {
      OFFSET 0 -44.4227 1.3727
      CHANNELS 3 Zrotation Xrotation Yrotation
      JOINT LeftFoot
      {
        OFFSET -0.253549 -42.0924 -1.46059
        CHANNELS 3 Zrotation Xrotation Yrotation
        JOINT LeftToes
        {
          OFFSET -0.04 -4.41509 8.4991
          CHANNELS 3 Zrotation Xrotation Yrotation
          End Site
          {
            OFFSET 0.08 -0.047448 9.77979
          }
        }
      }
    }
  }
}
MOTION
Frames:	16
Frame Time:	0.0333333
92.2204 97.89 0.489994 1.02088 -0.299041 -73.7677 -3.84772 -15.23 -3.69947 -1.39709 39.5963 -22.5731 9.63337 -13.6764 0.303554 0.0462048 0.00053089 0.662642 -2.6958 -3.86013 1.61765 -1.57901 17.5799 1.96375 4.54765 -7.80713 -7.13237 -38.0446 7.85429 -14.148 -33.0613 -21.5255 5.42063 -12.3612 1.76754 -23.0337 19.6114 8.96233 -0.285756 47.8917 11.7641 17.3651 21.0371 -44.7968 -7.29163 4.73685 20.7456 15.8361 -5.61406 9.50757 4.08089 -4.42319 -13.2433 -6.56484 1.0787 28.8214 16.9806 -5.59415 -15.931 -0.330685 -1.31974e-009 8.75232e-006 -1.46399e-008 
91.9964 97.8913 0.531006 1.09237 -0.277674 -72.9167 -3.62969 -16.1655 -3.31427 -1.39131 40.1822 -22.1322 9.69104 -13.5185 0.293995 0.0462048 0.00053089 0.662642 -2.77172 -3.39814 1.60398 -1.74685 17.4517 2.00696 4.59338 -8.11639 -7.612 -37.9343 7.82714 -14.1329 -31.5071 -22.5576 6.1018 -12.8157 1.42692 -23.598 19.6769 8.96245 -0.27268 47.8566 11.7547 17.3632 21.173 -43.8952 -7.22788 4.47514 20.4993 16.8733 -5.36433 9.53265 3.9606 -4.42693 -13.1715 -6.72901 1.07323 28.741 16.2606 -5.69905 -16.0791 -0.345185 -1.31974e-009 8.75232e-006 -1.46399e-008 
91.5568 97.9196 0.580525 1.31294 -0.145736 -71.1795 -3.17896 -17.8692 -2.61938 -1.37298 40.4765 -21.4577 9.68077 -13.2458 0.271654 0.0462048 0.00053089 0.662642 -2.83391 -2.47632 1.51705 -2.02817 17.0584 2.01962 4.66354 -8.74857 -8.59923 -37.6238 7.73374 -14.0517 -28.6238 -24.586 7.09474 -14.2224 -0.122299 -24.7554 20.7227 8.96529 0.0447994 47.7166 11.6994 17.3235 21.3766 -42.6001 -7.23231 3.85332 20.5037 18.6463 -5.21769 9.5404 4.07158 -4.34884 -13.1383 -7.05044 1.07256 28.5291 14.9042 -6.0142 -16.3128 -0.380093 -1.31974e-009 8.75232e-006 -1.46399e-008 
91.0648 97.9734 0.581783 1.54736 0.0972466 -69.1271 -2.68581 -19.424 -1.99903 -1.34497 39.4921 -21.3652 9.61619 -12.9266 0.243046 0.0462048 0.00053089 0.662642 -2.80889 -1.25784 1.36578 -2.16257 16.5098 1.92293 4.7631 -9.75783 -9.65198 -37.1836 7.56968 -13.8623 -25.7858 -27.0054 7.37808 -16.2132 -2.42074 -26.0813 22.942 8.98382 0.691424 47.5001 11.6153 17.2644 21.2444 -41.8331 -7.53758 3.14514 20.9168 20.2396 -5.30281 9.52274 4.35812 -4.17433 -13.1289 -7.61261 1.08891 28.2463 13.5394 -6.42793 -16.4588 -0.419635 -1.31974e-009 8.75232e-006 -1.46399e-008 
90.5896 98.047 0.502052 1.64004 0.347186 -66.9612 -2.48017 -20.4398 -2.51212 -1.32357 37.3192 -21.8361 9.64845 -12.3526 0.19878 0.0462048 0.00053089 0.662642 -2.6502 0.272008 1.23773 -2.0642 16.0621 1.78709 4.81344 -11.441 -10.7286 -36.736 7.39169 -13.6397 -23.4789 -29.2579 6.20413 -18.0814 -4.54648 -27.1876 25.1497 9.04483 1.42338 47.3167 11.5639 17.2494 20.4817 -41.6733 -8.35261 2.75226 20.988 21.5091 -5.4198 9.51098 4.40922 -3.93131 -12.9838 -8.51854 1.07365 27.8716 12.1985 -6.9911 -16.4737 -0.464786 -1.31974e-009 8.75232e-006 -1.46399e-008 
90.1132 98.1417 0.313086 1.68128 0.521661 -64.5885 -2.901 -21.2488 -5.38029 -1.28531 34.6485 -21.7932 9.63663 -11.3701 0.120587 0.0462048 0.00053089 0.662642 -2.27036 2.15958 1.24102 -1.99914 15.7428 1.81152 4.81125 -13.9107 -12.1158 -36.3316 7.27094 -13.5264 -21.3612 -30.7001 3.20015 -19.4668 -6.25184 -27.8368 26.2308 9.15027 2.07598 47.1989 11.5647 17.3007 19.1136 -42.0611 -9.87091 2.74887 20.586 22.7597 -5.58123 9.50626 4.18422 -3.64466 -12.7748 -9.56105 0.969692 27.3775 10.6799 -7.73123 -16.3838 -0.517408 -1.31974e-009 8.75232e-006 -1.46399e-008 
89.6124 98.2449 -0.0119859 1.90887 0.614157 -62.0646 -4.01345 -22.2306 -10.5867 -1.21437 31.9362 -20.9654 9.33441 -10.1295 0.0159184 0.0462048 0.00053089 0.662642 -1.62827 4.32789 1.42539 -2.38972 15.3347 2.16726 4.93222 -16.9346 -13.8816 -35.9383 7.23476 -13.6033 -19.1754 -31.0327 -1.59567 -20.3082 -7.55783 -28.0211 26.3842 9.23409 2.47129 47.0992 11.595 17.3978 17.403 -42.8345 -12.0746 2.78534 20.5609 23.9744 -5.84975 9.48986 4.04296 -3.37856 -12.764 -10.3622 0.8322 26.8093 9.01347 -8.34997 -16.1818 -0.551814 -1.31974e-009 8.75232e-006 -1.46399e-008 
89.0868 98.3495 -0.461739 2.39268 0.66843 -59.6146 -5.53791 -23.2556 -17.0273 -1.19503 29.1905 -21.0762 8.71353 -8.70643 -0.0984165 0.0462048 0.00053089 0.662642 -0.754694 6.58633 1.72806 -3.32736 14.7773 2.81189 5.1358 -20.175 -15.8815 -35.5471 7.28189 -13.8767 -17.0889 -30.6037 -7.7611 -20.6469 -8.35402 -27.913 26.4573 9.23948 2.50364 47.0038 11.6494 17.5372 15.7568 -43.148 -14.5185 2.61656 20.9572 24.7333 -5.9078 9.48003 4.16627 -3.16733 -12.9682 -10.8471 0.745014 26.0964 7.23056 -8.69447 -15.8446 -0.553693 -1.31974e-009 8.75232e-006 -1.46399e-008 
88.5365 98.4596 -0.98064 3.02955 0.781007 -57.2449 -7.1968 -24.0588 -23.9765 -1.13522 26.4905 -24.2021 7.54846 -6.91032 -0.215212 0.0462048 0.00053089 0.662642 0.42371 8.79281 2.00429 -4.4501 14.1936 3.49682 4.8563 -23.2922 -18.3112 -35.1704 7.39249 -14.2994 -15.4376 -30.0427 -14.8788 -20.5734 -8.69399 -27.5912 26.862 9.18634 2.31602 46.8958 11.7207 17.7131 14.4155 -42.4201 -16.7894 2.61866 20.9571 24.767 -5.57839 9.49717 4.42026 -2.9587 -13.2738 -11.2294 0.680997 25.1721 5.31794 -9.12141 -15.3967 -0.550727 -1.31974e-009 8.75232e-006 -1.46399e-008 
87.9396 98.5202 -1.51766 3.82366 1.00287 -54.8074 -9.17765 -24.7224 -29.9408 -0.0353014 24.5371 -31.7463 5.03497 -4.8955 -0.272952 0.0462048 0.00053089 0.662642 1.95551 10.8857 2.13265 -5.4835 13.4744 4.01486 3.78094 -25.7618 -21.2485 -34.7621 7.50035 -14.7366 -14.791 -29.6178 -22.9262 -20.1082 -8.89512 -26.8588 27.5196 9.11909 2.10549 46.7049 11.7683 17.8829 13.5295 -40.2522 -18.9171 3.20298 19.8616 24.3232 -5.49849 9.4932 4.68997 -2.85253 -13.8999 -11.6342 0.580242 24.4668 3.73445 -9.68918 -14.9338 -0.55271 -1.31974e-009 8.75232e-006 -1.46399e-008 
87.2299 98.4654 -2.04183 4.86911 1.14967 -52.4796 -11.6193 -25.4756 -33.4089 2.51521 23.7584 -41.8173 0.984084 -3.50969 -0.181517 0.0462048 0.00053089 0.662642 3.49339 12.8237 2.1349 -6.57239 12.4111 4.40649 2.78075 -27.0465 -23.3464 -34.286 7.54654 -15.0636 -15.843 -29.0596 -31.9855 -19.2894 -9.1886 -25.6001 28.2466 9.05589 1.93202 46.4632 11.7965 18.0407 13.2372 -36.4273 -21.2212 3.99142 18.351 23.8886 -6.44415 9.3985 4.94777 -3.10377 -14.9176 -11.9182 0.475921 24.3631 2.90931 -9.78148 -14.5361 -0.526316 -1.31974e-009 8.75232e-006 -1.46399e-008 
86.363 98.2909 -2.48755 5.9109 1.08973 -50.8281 -13.7136 -26.1674 -38.0866 3.56195 24.2551 -45.8832 -3.35649 -3.45932 -0.0246162 0.0462048 0.00053089 0.662642 4.93419 14.5788 2.17764 -7.66303 11.3286 4.85169 1.69106 -27.676 -24.8034 -33.8245 7.57747 -15.3533 -18.6399 -27.8434 -41.6653 -18.2439 -9.29261 -24.1391 28.9044 8.98805 1.74028 46.3371 11.8746 18.2399 13.6373 -31.6569 -23.8403 4.39026 17.478 23.4519 -8.06493 9.24324 5.11785 -3.47456 -15.8467 -11.7091 0.431906 24.7622 2.29702 -9.41312 -14.4607 -0.497398 -1.31974e-009 8.75232e-006 -1.46399e-008 
85.3286 97.9821 -2.78468 6.62301 0.691299 -50.1877 -14.9535 -26.7441 -43.3982 2.33949 25.938 -43.3278 -6.36765 -4.72602 0.011614 0.0462048 0.00053089 0.662642 6.1708 15.9881 2.28916 -8.46035 10.8269 5.33788 0.201281 -28.1472 -26.0765 -33.4411 7.65553 -15.728 -22.2549 -25.458 -51.0157 -17.0836 -8.38944 -23.0868 29.4747 8.88685 1.41308 46.4067 12.0204 18.4756 14.6162 -27.7923 -26.5918 4.56338 17.0453 22.2721 -9.16693 9.14202 5.12652 -3.6848 -16.2558 -10.6751 0.403369 25.6261 1.53807 -9.37583 -15.0138 -0.538958 -1.31974e-009 8.75232e-006 -1.46399e-008 
84.1784 97.5773 -2.84458 6.94144 0.212367 -50.5815 -15.2278 -27.4766 -46.1828 0.126765 28.0481 -39.572 -7.48843 -6.401 -0.0787491 0.0462048 0.00053089 0.662642 7.39081 16.733 2.23017 -8.70401 10.9672 5.53843 -1.07691 -28.2551 -26.304 -33.0051 7.68021 -16.0018 -25.8468 -21.6768 -58.8539 -16.0051 -5.74917 -23.2232 29.9954 8.74816 0.945046 46.5879 12.1569 18.6432 15.0399 -27.3173 -29.5197 4.87663 17.9868 19.7014 -9.45708 9.13334 4.88003 -3.69231 -16.4422 -8.62404 0.433768 27.2927 2.00876 -9.4187 -15.9364 -0.613472 -1.31974e-009 8.75232e-006 -1.46399e-008 
82.9349 97.1662 -2.56995 7.01184 0.0902669 -52.1727 -14.42 -28.6533 -44.8449 -1.5689 30.2339 -38.348 -7.30299 -7.55327 -0.163971 0.0462048 0.00053089 0.662642 8.50843 16.4541 1.75705 -8.12739 11.2598 5.02829 -1.63345 -27.898 -24.8826 -32.3492 7.49085 -15.8474 -29.6726 -16.8469 -63.9266 -15.4605 -1.51682 -25.6361 30.3189 8.64268 0.58846 46.6928 12.1726 18.6244 13.2908 -31.0974 -33.0915 4.92577 22.9391 16.3474 -10.1373 9.13254 4.14522 -3.50704 -16.9245 -5.81101 0.592256 30.0122 5.39903 -8.57547 -16.6317 -0.600899 -1.31974e-009 8.75232e-006 -1.46399e-008 
81.4988 96.8013 -1.92096 6.85588 0.34966 -55.4703 -12.2443 -30.0082 -39.1225 -1.86063 32.3968 -39.8812 -6.52016 -8.12488 -0.201617 0.0462048 0.00053089 0.662642 8.70708 15.0265 0.905484 -6.22263 11.5592 3.56827 -1.61233 -27.5623 -22.6953 -31.5212 7.14802 -15.3754 -33.9158 -11.797 -65.0507 -15.8624 3.26413 -31.2522 30.093 8.62022 0.462773 46.4154 11.9457 18.3345 10.4632 -35.9167 -36.7306 3.98578 29.9749 14.1218 -12.0871 9.07424 3.06861 -2.88166 -17.5691 -2.53028 0.815763 33.624 10.6033 -8.08525 -17.005 -0.589201 -1.31974e-009 8.75232e-006 -1.46399e-008 
